<svg width="1440" height="257" viewBox="0 0 1440 257" fill="none" xmlns="http://www.w3.org/2000/svg">
<path d="M1440 160L1413.3 165.3C1386.7 171 1333 181 1280 176C1226.7 171 1173 149 1120 133.3C1066.7 117 1013 107 960 133.3C906.7 160 853 224 800 229.3C746.7 235 693 181 640 181.3C586.7 181 533 235 480 250.7C426.7 267 373 245 320 224C266.7 203 213 181 160 186.7C106.7 192 53 224 27 240L0 256V-6.10352e-05H26.7C53.2999 -6.10352e-05 107 -6.10352e-05 160 -6.10352e-05C213.3 -6.10352e-05 267 -6.10352e-05 320 -6.10352e-05C373.3 -6.10352e-05 427 -6.10352e-05 480 -6.10352e-05C533.3 -6.10352e-05 587 -6.10352e-05 640 -6.10352e-05C693.3 -6.10352e-05 747 -6.10352e-05 800 -6.10352e-05C853.3 -6.10352e-05 907 -6.10352e-05 960 -6.10352e-05C1013.3 -6.10352e-05 1067 -6.10352e-05 1120 -6.10352e-05C1173.3 -6.10352e-05 1227 -6.10352e-05 1280 -6.10352e-05C1333.3 -6.10352e-05 1387 -6.10352e-05 1413 -6.10352e-05H1440V160Z" fill="#FF8150" style="fill:#FF8150;fill:color(display-p3 1.0000 0.5059 0.3137);fill-opacity:1;"/>
</svg>
