<svg width="1440" height="241" viewBox="0 0 1440 241" fill="none" xmlns="http://www.w3.org/2000/svg">
<path opacity="0.2" d="M1440 90.5876L1413.3 85.6052C1386.7 80.2468 1333 70.846 1280 75.5464C1226.7 80.2468 1173 100.928 1120 115.688C1066.7 131.011 1013 140.412 960 115.688C906.7 90.5876 853 30.4227 800 25.4403C746.7 20.0818 693 70.846 640 70.564C586.7 70.846 533 20.0818 480 5.32261C426.7 -10.0007 373 10.681 320 30.4227C266.7 50.1643 213 70.846 160 65.4876C106.7 60.5051 53 30.4227 27 15.3814L0 0.340195V241H26.7C53.2999 241 107 241 160 241C213.3 241 267 241 320 241C373.3 241 427 241 480 241C533.3 241 587 241 640 241C693.3 241 747 241 800 241C853.3 241 907 241 960 241C1013.3 241 1067 241 1120 241C1173.3 241 1227 241 1280 241C1333.3 241 1387 241 1413 241H1440V90.5876Z" fill="#203435" style="fill:#203435;fill:color(display-p3 0.1255 0.2039 0.2078);fill-opacity:1;"/>
</svg>
