<svg width="129" height="149" viewBox="0 0 129 149" fill="none" xmlns="http://www.w3.org/2000/svg">
<path d="M26.2891 51.0814C17.8827 62.6522 9.73106 73.8662 1.52846 85.1312C1.01897 84.8254 0.509476 84.5705 0 84.2647C0.101898 81.767 -1.52588e-05 79.2184 0.305679 76.7717C2.95496 56.1277 14.673 42.8748 33.8803 35.7896C35.6635 35.127 37.2938 34.1585 38.9751 33.3429C38.8223 33.19 38.6185 32.9861 38.4657 32.8332C27.5119 34.9741 16.5581 37.1149 4.94196 39.4087C11.8709 26.9713 20.9396 24.1169 40.5545 27.4301C42.9491 9.13091 49.1647 1.43402 60.9846 2.6064C55.2275 9.74258 47.4834 15.5025 46.2607 25.5441C52.2216 13.8204 61.2393 5.66476 73.8235 1.94375C88.904 -2.49087 102.711 0.822352 108.162 10.2523C97.9727 8.0095 88.1908 7.09199 78.5616 11.4756C69.6967 15.5025 60.628 19.1216 56.3483 29.7239C88.0379 12.0363 119.524 15.6044 129 38.0834C108.111 29.2651 87.1208 26.5126 65.6208 33.0371C71.3779 34.0056 77.237 34.2604 82.9941 34.9231C93.3365 36.1464 103.373 38.3892 111.882 44.9647C117.333 49.1954 121.307 54.3947 121.664 61.327C112.34 57.3001 103.475 52.9165 94.2026 49.7561C85.3886 46.6978 76.1671 44.9137 67.1493 42.62C67.0474 43.1297 66.8946 43.6904 66.7927 44.2001C94.2536 52.5596 108.213 66.3223 113.614 91.4008C112.493 90.5343 110.404 88.8012 107.755 86.6094C87.6813 69.6355 82.5865 59.8997 67.2512 51.948C65.2642 50.9285 61.7998 49.2464 57.2145 47.7172C57.1635 47.7682 56.7559 48.176 56.705 48.227C56.5521 48.3799 56.3483 48.5838 56.1955 48.7367C82.0261 75.1915 95.5273 108.375 107.5 142.73C107.245 143.036 107.041 143.444 106.991 143.954C106.991 144.056 106.991 144.158 106.94 144.209C106.94 144.209 106.889 144.311 106.838 144.361C106.736 144.463 106.634 144.616 106.634 144.616C106.634 144.667 106.532 144.718 106.532 144.718C105.819 145.33 105.055 145.738 104.392 146.044C102.813 146.808 101.132 147.42 99.4502 147.981C98.5332 148.286 97.6161 148.643 96.6991 149C90.3815 117.703 65.9266 65.4557 49.4195 50.3168C49.878 53.8849 50.2856 57.504 50.6932 61.174C51.9669 72.5919 52.8839 83.7549 53.4953 94.5611C49.3175 90.0756 47.2287 85.8448 46.1588 83.0413C44.5284 78.8106 44.0699 75.0896 43.2547 67.8515C42.7453 63.111 42.5415 59.1861 42.4396 56.4845C41.7773 58.7273 40.7583 62.0915 39.5356 66.2203C37.5486 72.9997 36.7844 76.0581 36.2749 77.5872C34.7974 82.3787 31.5877 89.158 23.6398 97.1608C22.9265 93.7966 22.2133 88.9032 22.3661 83.0413C22.7227 69.2277 27.7156 59.288 29.295 56.3316C31.231 52.7635 34.4408 47.6153 39.6374 42.467C37.3957 42.8748 33.3709 43.9962 29.6517 47.2585C28.1232 48.5838 27.0024 49.96 26.1872 51.1324L26.2891 51.0814Z" fill="#203435" style="fill:#203435;fill:color(display-p3 0.1255 0.2039 0.2078);fill-opacity:1;"/>
</svg>
