<svg width="406" height="671" viewBox="0 0 406 671" fill="none" xmlns="http://www.w3.org/2000/svg">
<path d="M520.626 151.436C520.626 151.436 516.378 146.372 511.15 141.798C480.108 115.497 432.074 102.592 432.074 102.592C381.1 88.8699 332.739 86.5829 303.821 86.4195C340.745 75.3112 406.26 61.099 486.479 72.8608C543.499 81.3554 588.265 100.142 618 115.497C607.38 96.221 588.918 70.0837 558.203 49.3373C528.305 29.2443 493.341 19.2795 454.13 16.6658C386.165 12.0917 324.244 29.7344 266.571 67.47C278.497 51.951 343.686 -29.7278 446.615 -32.6683C476.677 -33.4851 502.491 -27.4408 522.423 -20.4164C514.254 -30.3813 499.55 -45.9002 476.677 -56.8452C455.111 -67.3001 431.257 -71.0573 405.77 -69.7505C319.179 -65.5032 256.768 -23.6836 217.884 58.4853C223.602 3.59715 262.976 -25.4805 295.652 -62.8894C271.472 -63.7062 253.5 -58.3154 237.653 -46.227C203.343 -20.0897 194.52 16.9925 196.971 58.1586C107.929 36.5954 40.1268 57.0151 24.1156 113.374C38.9832 104.552 59.7323 94.5874 86.0364 88.2164C130.149 77.5982 167.563 82.8256 188.802 87.563C176.875 89.85 64.1436 112.883 18.0706 216.126C-6.27297 270.524 -0.391325 321.328 3.85654 344.198C7.61427 333.743 14.1495 317.407 23.7889 298.294C40.4536 264.806 70.1886 206.814 131.619 161.727C144.69 152.089 165.275 138.694 193.377 126.769C154.656 160.257 134.397 195.216 124.104 216.942C112.177 242.263 74.2731 322.145 111.034 381.117C120.019 395.656 131.293 405.13 139.462 411.011C139.952 404.477 140.932 393.695 142.729 380.3C144.69 366.088 153.349 305.482 186.025 226.09C189.782 216.779 195.827 202.894 203.833 186.231C198.441 208.284 190.599 253.534 203.996 307.933C218.21 364.944 248.436 402.353 263.957 419.179C260.852 385.854 256.931 358.9 253.991 340.931C245.168 286.206 236.836 259.905 233.895 211.551C232.588 189.825 232.751 172.182 233.078 161.074C322.12 260.722 446.452 565.711 450.863 670.75C458.052 673.037 466.22 658.825 473.573 660.949C477.984 662.419 482.558 663.726 486.97 665.196C501.837 666.666 516.705 668.463 531.409 670.75C531.572 670.26 531.899 669.77 532.226 669.443C528.631 666.176 524.874 663.072 521.279 659.968C511.64 651.964 495.956 639.712 499.387 625.337C500.04 622.396 501.837 620.599 503.961 619.782C449.883 450.054 388.125 287.186 261.833 154.703C281.602 164.178 309.049 177.9 341.072 196.033C368.029 211.388 381.427 218.903 398.255 230.664C453.314 268.727 488.113 309.566 506.739 331.783C518.175 345.505 527.161 357.267 532.879 365.108C522.096 305.646 497.426 254.678 456.744 212.042C415.9 169.405 365.089 146.372 307.416 135.427C321.466 136.407 340.418 138.204 362.475 142.451C397.438 148.985 422.598 157.97 445.308 165.975C469.978 174.796 501.347 187.538 536.637 205.834C537.454 199.3 538.598 183.617 531.736 168.262C527.978 159.767 522.423 153.069 521.279 151.763L520.626 151.436Z" fill="#203435" style="fill:#203435;fill:color(display-p3 0.1255 0.2039 0.2078);fill-opacity:1;"/>
</svg>
