<svg width="345" height="398" viewBox="0 0 345 398" fill="none" xmlns="http://www.w3.org/2000/svg">
<path opacity="0.2" d="M274.692 136.446C297.174 167.353 318.975 197.307 340.912 227.397C342.275 226.581 343.637 225.9 345 225.083C344.727 218.411 345 211.603 344.182 205.068C337.097 149.925 305.758 114.525 254.39 95.5991C249.621 93.8291 245.261 91.2422 240.764 89.0637C241.173 88.6552 241.718 88.1106 242.127 87.7021C271.422 93.4207 300.717 99.1392 331.783 105.266C313.252 72.0443 288.999 64.4196 236.54 73.2697C230.136 24.3899 213.513 3.83048 181.902 6.96205C197.299 26.0238 218.009 41.4093 221.28 68.2319C205.338 36.9162 181.22 15.1314 147.565 5.19203C107.233 -6.65348 70.3081 2.19662 55.7287 27.3853C82.9799 21.3945 109.141 18.9437 134.893 30.6531C158.602 41.4093 182.855 51.0764 194.301 79.3967C109.55 32.1508 25.3436 41.6816 0 101.726C55.8649 78.1713 112.002 70.8189 169.502 88.2467C154.105 90.8337 138.436 91.5145 123.039 93.2845C95.3791 96.5522 68.5367 102.543 45.782 120.107C31.2026 131.408 20.5746 145.296 19.6208 163.813C44.5557 153.057 68.2642 141.347 93.0628 132.906C116.635 124.736 141.297 119.971 165.415 113.844C165.687 115.206 166.096 116.703 166.368 118.065C92.9265 140.394 55.5924 177.156 41.1493 244.145C44.1469 241.83 49.7334 237.201 56.8187 231.346C110.504 186.006 124.129 160.001 165.142 138.76C170.456 136.037 179.722 131.544 191.985 127.459C192.121 127.596 193.211 128.685 193.347 128.821C193.756 129.23 194.301 129.774 194.71 130.183C125.628 200.847 89.5201 289.484 57.5 381.253C58.1812 382.07 58.7263 383.159 58.8626 384.521C58.8626 384.793 58.8625 385.065 58.9988 385.201C58.9988 385.201 59.135 385.474 59.2713 385.61C59.5438 385.882 59.8163 386.291 59.8163 386.291C59.8163 386.427 60.0889 386.563 60.0889 386.563C61.9964 388.197 64.0403 389.286 65.8116 390.103C70.0355 392.145 74.532 393.779 79.0284 395.277C81.481 396.094 83.9336 397.047 86.3863 398C103.282 314.401 168.685 174.842 212.832 134.403C211.605 143.934 210.515 153.601 209.425 163.404C206.019 193.903 203.566 223.721 201.931 252.586C213.104 240.604 218.691 229.304 221.552 221.815C225.912 210.514 227.139 200.575 229.319 181.241C230.681 168.578 231.226 158.094 231.499 150.878C233.27 156.869 235.995 165.855 239.265 176.884C244.579 194.992 246.623 203.162 247.986 207.246C251.937 220.045 260.521 238.154 281.777 259.53C283.685 250.544 285.592 237.473 285.184 221.815C284.23 184.917 270.877 158.367 266.653 150.47C261.475 140.939 252.891 127.187 238.993 113.435C244.988 114.525 255.752 117.52 265.699 126.234C269.787 129.774 272.784 133.45 274.964 136.582L274.692 136.446Z" fill="#203435" style="fill:#203435;fill:color(display-p3 0.1255 0.2039 0.2078);fill-opacity:1;"/>
</svg>
