<svg viewBox="0 0 4320 256" fill="none" xmlns="http://www.w3.org/2000/svg">
  <path opacity="0.2" d="M4000 131.14c132.5-44.732 220.5-176.304 320-115.27v240.129H0V15.869l27 15.326c26 14.987 79.7 44.96 133 49.925 53 5.34 106.7-15.268 160-34.938 53-19.67 106.7-40.278 160-25.01 53 14.706 106.7 65.287 160 65.006 53 .281 106.7-50.3 160-44.961 53 4.965 106.7 64.913 160 89.923 53 24.635 106.7 15.268 160 0 132.5-44.732 220.5-176.304 320-115.27l27 15.325c26 14.987 79.7 44.96 133 49.925 53 5.34 106.7-15.268 160-34.938 53-19.67 106.7-40.278 160-25.01 53 14.706 106.7 65.287 160 65.006 53 .281 106.7-50.3 160-44.961 53 4.965 106.7 64.913 160 89.923 53 24.635 106.7 15.268 160 0 132.5-44.732 220.5-176.304 320-115.27l27 15.325c26 14.987 79.7 44.96 133 49.925 53 5.34 106.7-15.268 160-34.938 53-19.67 106.7-40.278 160-25.01 53 14.706 106.7 65.287 160 65.006 53 .281 106.7-50.3 160-44.961 53 4.965 106.7 64.913 160 89.923 53 24.635 106.7 15.268 160 0" fill="#203435"/>
</svg>