<svg width="85" height="32" viewBox="0 0 85 32" fill="none" xmlns="http://www.w3.org/2000/svg">
<path d="M84.5471 15.7734L78.7736 9.99994L73.0001 15.7734L78.7736 21.5469L84.5471 15.7734ZM24.7736 15.7734L24.7736 16.7734L78.7736 16.7734L78.7736 15.7734L78.7736 14.7734L24.7736 14.7734L24.7736 15.7734Z" fill="#FF8150" style="fill:#FF8150;fill:color(display-p3 1.0000 0.5059 0.3137);fill-opacity:1;"/>
<path d="M5.72205e-05 25.7734L5.77356 31.5469L11.5471 25.7734L5.77356 19.9999L5.72205e-05 25.7734ZM42.7736 25.7734V24.7734L5.77356 24.7734V25.7734V26.7734L42.7736 26.7734V25.7734Z" fill="#203435" style="fill:#203435;fill:color(display-p3 0.1255 0.2039 0.2078);fill-opacity:1;"/>
<path d="M5.72205e-05 5.77344L5.77356 11.5469L11.5471 5.77344L5.77356 -6.53267e-05L5.72205e-05 5.77344ZM42.7736 5.77344V4.77344L5.77356 4.77344V5.77344V6.77344L42.7736 6.77344V5.77344Z" fill="#203435" style="fill:#203435;fill:color(display-p3 0.1255 0.2039 0.2078);fill-opacity:1;"/>
</svg>
