<svg viewBox="0 0 618 741" fill="none" xmlns="http://www.w3.org/2000/svg">
  <path d="M520.626 221.436s-4.248-5.064-9.476-9.638c-31.042-26.301-79.076-39.206-79.076-39.206-50.974-13.722-99.335-16.009-128.253-16.172 36.924-11.109 102.439-25.321 182.658-13.559 57.02 8.494 101.786 27.281 131.521 42.636-10.62-19.276-29.082-45.413-59.797-66.16-29.898-20.093-64.862-30.058-104.073-32.671-67.965-4.574-129.886 13.068-187.559 50.804 11.926-15.519 77.115-97.198 180.044-100.138 30.062-.817 55.876 5.227 75.808 12.252-8.169-9.965-22.873-25.484-45.746-36.43C455.111 2.7 431.257-1.056 405.77.25c-86.591 4.247-149.002 46.066-187.886 128.235 5.718-54.888 45.092-83.966 77.768-121.374-24.18-.817-42.152 4.574-57.999 16.662-34.31 26.137-43.133 63.22-40.682 104.386-89.042-21.564-156.844-1.144-172.855 55.215 14.867-8.822 35.616-18.787 61.92-25.158 44.113-10.618 81.527-5.39 102.766-.653-11.927 2.287-124.658 25.32-170.731 128.563C-6.273 340.524-.391 391.328 3.857 414.198c3.757-10.455 10.293-26.791 19.932-45.904 16.665-33.488 46.4-91.48 107.83-136.567 13.071-9.638 33.656-23.033 61.758-34.958-38.721 33.488-58.98 68.447-69.273 90.173-11.927 25.321-49.83 105.203-13.07 164.175 8.985 14.539 20.259 24.013 28.428 29.894.49-6.534 1.47-17.316 3.267-30.711 1.961-14.212 10.62-74.818 43.296-154.21 3.757-9.311 9.802-23.196 17.808-39.859-5.392 22.053-13.234 67.303.163 121.702 14.214 57.011 44.44 94.42 59.961 111.246-3.105-33.325-7.026-60.279-9.966-78.248-8.823-54.725-17.155-81.026-20.096-129.38-1.307-21.726-1.144-39.369-.817-50.477 89.042 99.648 213.374 404.637 217.785 509.676 7.189 2.287 15.357-11.925 22.71-9.801 4.411 1.47 8.985 2.777 13.397 4.247 14.867 1.47 29.735 3.267 44.439 5.554.163-.49.49-.98.817-1.307-3.595-3.267-7.352-6.371-10.947-9.475-9.639-8.004-25.323-20.256-21.892-34.631.653-2.941 2.45-4.738 4.574-5.555-54.078-169.728-115.836-332.596-242.128-465.079a1305 1305 0 0 1 79.239 41.33c26.957 15.355 40.355 22.87 57.183 34.631 55.059 38.063 89.858 78.902 108.484 101.119 11.436 13.722 20.422 25.484 26.14 33.325-10.783-59.462-35.453-110.43-76.135-153.066-40.844-42.637-91.655-65.67-149.328-76.615 14.05.98 33.002 2.777 55.059 7.024 34.963 6.534 60.123 15.519 82.833 23.524 24.67 8.821 56.039 21.563 91.329 39.859.817-6.534 1.961-22.217-4.901-37.572-3.758-8.495-9.313-15.193-10.457-16.499z" fill="#203435"/>
</svg>
