<svg width="1440" height="157" viewBox="0 0 1440 157" fill="none" xmlns="http://www.w3.org/2000/svg">
<path d="M0 42.3029L30 53.7726C60 65.2423 120 88.1817 180 80.5114C240 73.1277 300 34.4174 360 34.6325C420 34.4174 480 73.1277 540 65.2423C600 57.3569 660 4.30944 720 0.223351C780 -3.57599 840 42.3029 900 46.1022C960 50.1883 1020 11.478 1080 11.6931C1140 11.478 1200 50.1883 1260 65.2423C1320 80.2963 1380 73.1277 1410 69.0416L1440 65.2423V157H1410C1380 157 1320 157 1260 157C1200 157 1140 157 1080 157C1020 157 960 157 900 157C840 157 780 157 720 157C660 157 600 157 540 157C480 157 420 157 360 157C300 157 240 157 180 157C120 157 60 157 30 157H0V42.3029Z" fill="#203435" style="fill:#203435;fill:color(display-p3 0.1255 0.2039 0.2078);fill-opacity:1;"/>
</svg>
