<svg width="1440" height="241" viewBox="0 0 1440 241" fill="none" xmlns="http://www.w3.org/2000/svg">
<path opacity="0.2" d="M0 150.412L26.7 155.395C53.3 160.753 107 170.154 160 165.454C213.3 160.753 267 140.072 320 125.312C373.3 109.989 427 100.588 480 125.312C533.3 150.412 587 210.577 640 215.56C693.3 220.918 747 170.154 800 170.436C853.3 170.154 907 220.918 960 235.677C1013.3 251.001 1067 230.319 1120 210.577C1173.3 190.836 1227 170.154 1280 175.512C1333.3 180.495 1387 210.577 1413 225.619L1440 240.66V0H1413.3C1386.7 0 1333 0 1280 0C1226.7 0 1173 0 1120 0C1066.7 0 1013 0 960 0C906.7 0 853 0 800 0C746.7 0 693 0 640 0C586.7 0 533 0 480 0C426.7 0 373 0 320 0C266.7 0 213 0 160 0C106.7 0 53 0 27 0H0V150.412Z" fill="#203435" style="fill:#203435;fill:color(display-p3 0.1255 0.2039 0.2078);fill-opacity:1;"/>
</svg>
