<svg width="85" height="32" viewBox="0 0 85 32" fill="none" xmlns="http://www.w3.org/2000/svg">
<path d="M-3.8147e-06 15.7734L5.7735 9.99994L11.547 15.7734L5.7735 21.5469L-3.8147e-06 15.7734ZM59.7735 15.7734L59.7735 16.7734L5.7735 16.7734L5.7735 15.7734L5.7735 14.7734L59.7735 14.7734L59.7735 15.7734Z" fill="#203435" style="fill:#203435;fill:color(display-p3 0.1255 0.2039 0.2078);fill-opacity:1;"/>
<path d="M84.547 25.7734L78.7735 31.5469L73 25.7734L78.7735 19.9999L84.547 25.7734ZM41.7735 25.7734V24.7734L78.7735 24.7734V25.7734V26.7734L41.7735 26.7734V25.7734Z" fill="#203435" style="fill:#203435;fill:color(display-p3 0.1255 0.2039 0.2078);fill-opacity:1;"/>
<path d="M84.547 5.77344L78.7735 11.5469L73 5.77344L78.7735 -6.53267e-05L84.547 5.77344ZM41.7735 5.77344V4.77344L78.7735 4.77344V5.77344V6.77344L41.7735 6.77344V5.77344Z" fill="#203435" style="fill:#203435;fill:color(display-p3 0.1255 0.2039 0.2078);fill-opacity:1;"/>
</svg>
