<svg width="402" height="767" viewBox="0 0 402 767" fill="none" xmlns="http://www.w3.org/2000/svg">
<path opacity="0.2" d="M111.81 361.853C111.81 361.853 111.811 355.243 112.878 348.379C119.764 308.281 148.278 267.528 148.278 267.528C178.52 224.26 214.106 191.434 236.16 172.728C200.73 187.941 141.397 219.148 87.4863 279.705C49.2534 322.851 27.0224 366.01 14.1046 396.882C9.85606 375.288 7.20816 343.398 17.4133 307.765C27.4123 273.158 47.8 243.057 76.166 215.859C125.306 168.684 184.089 142.415 252.527 134.273C233.417 130.045 130.984 109.345 50.2254 173.228C26.6658 191.919 10.7696 213.136 0.00994559 231.326C-0.133441 218.442 1.16196 197.102 11.6559 174.019C21.4631 152.151 37.3266 133.945 57.6959 118.57C126.775 66.1854 201.469 58.1279 284.061 96.1048C244.411 57.7211 195.557 60.7402 146.482 53.0713C164.485 36.9087 181.72 29.4917 201.631 28.5716C244.715 26.5537 275.302 49.2991 299.875 82.4173C354.248 8.68123 419.322 -19.2382 467.803 13.6584C450.743 16.4522 428.441 22.1489 404.192 34.1687C363.568 54.3766 338.259 82.4222 325.028 99.6994C335.636 93.7884 436.817 39.0026 538.458 88.5078C592.064 114.549 620.202 157.256 631.642 177.51C622.045 171.914 606.541 163.595 586.874 155.144C552.586 140.191 492.54 114.861 416.498 119.785C400.29 120.798 375.909 123.762 346.714 132.68C397.902 133.461 435.888 147.23 457.735 157.265C483.143 169.003 563.515 205.857 573.239 274.665C575.696 291.579 573.146 306.083 570.665 315.838C566.091 311.146 558.412 303.514 548.428 294.405C537.794 284.775 492.217 243.899 416.166 204.061C407.304 199.341 393.75 192.585 376.909 184.962C395.211 198.396 430.295 228.03 454.983 278.32C480.724 331.139 481.601 379.224 480.519 402.09C461.485 374.56 447.17 351.387 437.877 335.729C409.475 288.127 398.96 262.62 370.144 223.68C357.185 206.192 345.724 192.778 338.336 184.476C334.136 318.045 434.835 631.631 498.948 714.951C494.909 721.323 479.517 715.682 475.248 722.033C472.813 725.994 470.147 729.935 467.712 733.896C457.264 744.575 447.027 755.505 437.229 766.706C436.789 766.435 436.224 766.27 435.763 766.229C436.418 761.416 437.303 756.623 438.063 751.936C440.306 739.608 444.452 720.143 432.586 711.332C430.196 709.499 427.664 709.277 425.512 710.015C357.892 545.213 300.564 380.734 312.209 198.071C303.149 218.033 290.934 246.184 278.048 280.654C267.258 309.742 261.821 324.108 256.484 343.933C238.752 408.476 238.328 462.13 238.331 491.121C238.385 508.984 239.057 523.77 239.714 533.452C209.769 480.961 195.924 426.055 199.7 367.246C203.602 308.331 227.736 258.033 264.895 212.589C254.759 222.369 241.391 235.923 227.22 253.35C204.628 280.822 191.122 303.873 178.864 324.599C165.628 347.21 149.779 377.129 134.494 413.824C129.67 409.342 118.717 398.06 114.108 381.884C111.529 372.961 111.482 364.26 111.519 362.523L111.81 361.853Z" fill="#203435" style="fill:#203435;fill:color(display-p3 0.1255 0.2039 0.2078);fill-opacity:1;"/>
</svg>
