<svg viewBox="0 0 4320 256" fill="none" xmlns="http://www.w3.org/2000/svg">
  <path d="M3840 5.654c53.3-16.277 107 5.692 160 26.662 59.8 23.527 133.5 112.48 320 63.549V256H0V95.865l26.7-4.932C53.3 85.241 107 75.256 160 80.25c53.3 4.993 107 26.961 160 42.639 53.3 16.277 107 26.263 160 0 53.3-26.662 107-90.572 160-95.864 53.3-5.692 107 48.231 160 47.932 53.3.3 107-53.624 160-69.302 53.3-16.277 107 5.692 160 26.662 59.8 23.527 133.5 112.48 320 63.549l26.7-4.932c26.6-5.692 80.3-15.677 133.3-10.684 53.3 4.993 107 26.961 160 42.639 53.3 16.277 107 26.263 160 0 53.3-26.662 107-90.572 160-95.864 53.3-5.692 107 48.231 160 47.932 53.3.3 107-53.624 160-69.302 53.3-16.277 107 5.692 160 26.662 59.8 23.527 133.5 112.48 320 63.549l26.7-4.932c26.6-5.692 80.3-15.677 133.3-10.684 53.3 4.993 107 26.961 160 42.639 53.3 16.277 107 26.263 160 0 53.3-26.662 107-90.572 160-95.864 53.3-5.692 107 48.231 160 47.932 53.3.3 107-53.624 160-69.302" fill="#FF8150"/>
</svg>