<svg width="600" height="360" viewBox="0 0 600 360" fill="none" xmlns="http://www.w3.org/2000/svg">
<path d="M0 0H600V360H0V0Z" fill="#C6C6C6"/>
<mask id="path-2-outside-1_1459_6022" maskUnits="userSpaceOnUse" x="205" y="150" width="185" height="72" fill="black">
<rect fill="white" x="205" y="150" width="185" height="72"/>
<path d="M206.636 158.682V151.182H259V158.682H237.045V221H228.591V158.682H206.636ZM272.048 221V151.182H296.457C301.321 151.182 305.332 152.023 308.491 153.705C311.651 155.364 314.003 157.602 315.548 160.42C317.094 163.216 317.866 166.318 317.866 169.727C317.866 172.727 317.332 175.205 316.264 177.159C315.219 179.114 313.832 180.659 312.105 181.795C310.401 182.932 308.548 183.773 306.548 184.318V185C308.685 185.136 310.832 185.886 312.991 187.25C315.151 188.614 316.957 190.568 318.412 193.114C319.866 195.659 320.594 198.773 320.594 202.455C320.594 205.955 319.798 209.102 318.207 211.898C316.616 214.693 314.105 216.909 310.673 218.545C307.241 220.182 302.776 221 297.276 221H272.048ZM280.503 213.5H297.276C302.798 213.5 306.719 212.432 309.037 210.295C311.378 208.136 312.548 205.523 312.548 202.455C312.548 200.091 311.946 197.909 310.741 195.909C309.537 193.886 307.821 192.273 305.594 191.068C303.366 189.841 300.73 189.227 297.685 189.227H280.503V213.5ZM280.503 181.864H296.185C298.73 181.864 301.026 181.364 303.071 180.364C305.139 179.364 306.776 177.955 307.98 176.136C309.207 174.318 309.821 172.182 309.821 169.727C309.821 166.659 308.753 164.057 306.616 161.92C304.48 159.761 301.094 158.682 296.457 158.682H280.503V181.864ZM337.349 221H328.486L354.122 151.182H362.849L388.486 221H379.622L358.759 162.227H358.213L337.349 221ZM340.622 193.727H376.349V201.227H340.622V193.727Z"/>
</mask>
<path d="M206.636 158.682V151.182H259V158.682H237.045V221H228.591V158.682H206.636ZM272.048 221V151.182H296.457C301.321 151.182 305.332 152.023 308.491 153.705C311.651 155.364 314.003 157.602 315.548 160.42C317.094 163.216 317.866 166.318 317.866 169.727C317.866 172.727 317.332 175.205 316.264 177.159C315.219 179.114 313.832 180.659 312.105 181.795C310.401 182.932 308.548 183.773 306.548 184.318V185C308.685 185.136 310.832 185.886 312.991 187.25C315.151 188.614 316.957 190.568 318.412 193.114C319.866 195.659 320.594 198.773 320.594 202.455C320.594 205.955 319.798 209.102 318.207 211.898C316.616 214.693 314.105 216.909 310.673 218.545C307.241 220.182 302.776 221 297.276 221H272.048ZM280.503 213.5H297.276C302.798 213.5 306.719 212.432 309.037 210.295C311.378 208.136 312.548 205.523 312.548 202.455C312.548 200.091 311.946 197.909 310.741 195.909C309.537 193.886 307.821 192.273 305.594 191.068C303.366 189.841 300.73 189.227 297.685 189.227H280.503V213.5ZM280.503 181.864H296.185C298.73 181.864 301.026 181.364 303.071 180.364C305.139 179.364 306.776 177.955 307.98 176.136C309.207 174.318 309.821 172.182 309.821 169.727C309.821 166.659 308.753 164.057 306.616 161.92C304.48 159.761 301.094 158.682 296.457 158.682H280.503V181.864ZM337.349 221H328.486L354.122 151.182H362.849L388.486 221H379.622L358.759 162.227H358.213L337.349 221ZM340.622 193.727H376.349V201.227H340.622V193.727Z" fill="#8F8F8F"/>
<path d="M206.636 158.682H205.636V159.682H206.636V158.682ZM206.636 151.182V150.182H205.636V151.182H206.636ZM259 151.182H260V150.182H259V151.182ZM259 158.682V159.682H260V158.682H259ZM237.045 158.682V157.682H236.045V158.682H237.045ZM237.045 221V222H238.045V221H237.045ZM228.591 221H227.591V222H228.591V221ZM228.591 158.682H229.591V157.682H228.591V158.682ZM206.636 158.682H207.636V151.182H206.636H205.636V158.682H206.636ZM206.636 151.182V152.182H259V151.182V150.182H206.636V151.182ZM259 151.182H258V158.682H259H260V151.182H259ZM259 158.682V157.682H237.045V158.682V159.682H259V158.682ZM237.045 158.682H236.045V221H237.045H238.045V158.682H237.045ZM237.045 221V220H228.591V221V222H237.045V221ZM228.591 221H229.591V158.682H228.591H227.591V221H228.591ZM228.591 158.682V157.682H206.636V158.682V159.682H228.591V158.682ZM272.048 221H271.048V222H272.048V221ZM272.048 151.182V150.182H271.048V151.182H272.048ZM308.491 153.705L308.022 154.587L308.027 154.59L308.491 153.705ZM315.548 160.42L314.671 160.901L314.673 160.904L315.548 160.42ZM316.264 177.159L315.387 176.68L315.382 176.687L316.264 177.159ZM312.105 181.795L311.555 180.96L311.55 180.963L312.105 181.795ZM306.548 184.318L306.285 183.353L305.548 183.554V184.318H306.548ZM306.548 185H305.548V185.938L306.485 185.998L306.548 185ZM312.991 187.25L312.457 188.095V188.095L312.991 187.25ZM318.207 211.898L319.076 212.392V212.392L318.207 211.898ZM310.673 218.545L310.243 217.643V217.643L310.673 218.545ZM280.503 213.5H279.503V214.5H280.503V213.5ZM309.037 210.295L309.715 211.031L309.715 211.031L309.037 210.295ZM310.741 195.909L309.882 196.421L309.885 196.425L310.741 195.909ZM305.594 191.068L305.111 191.944L305.118 191.948L305.594 191.068ZM280.503 189.227V188.227H279.503V189.227H280.503ZM280.503 181.864H279.503V182.864H280.503V181.864ZM303.071 180.364L302.636 179.463L302.632 179.465L303.071 180.364ZM307.98 176.136L307.151 175.577L307.146 175.584L307.98 176.136ZM306.616 161.92L305.906 162.624L305.909 162.628L306.616 161.92ZM280.503 158.682V157.682H279.503V158.682H280.503ZM272.048 221H273.048V151.182H272.048H271.048V221H272.048ZM272.048 151.182V152.182H296.457V151.182V150.182H272.048V151.182ZM296.457 151.182V152.182C301.213 152.182 305.05 153.005 308.022 154.587L308.491 153.705L308.961 152.822C305.615 151.04 301.429 150.182 296.457 150.182V151.182ZM308.491 153.705L308.027 154.59C311.031 156.168 313.231 158.274 314.671 160.901L315.548 160.42L316.425 159.94C314.775 156.93 312.27 154.559 308.956 152.819L308.491 153.705ZM315.548 160.42L314.673 160.904C316.131 163.542 316.866 166.476 316.866 169.727H317.866H318.866C318.866 166.161 318.056 162.89 316.423 159.937L315.548 160.42ZM317.866 169.727H316.866C316.866 172.615 316.351 174.914 315.387 176.68L316.264 177.159L317.142 177.639C318.313 175.495 318.866 172.839 318.866 169.727H317.866ZM316.264 177.159L315.382 176.687C314.41 178.506 313.133 179.922 311.555 180.96L312.105 181.795L312.655 182.631C314.531 181.396 316.028 179.721 317.146 177.631L316.264 177.159ZM312.105 181.795L311.55 180.963C309.936 182.039 308.183 182.836 306.285 183.353L306.548 184.318L306.811 185.283C308.914 184.71 310.865 183.824 312.66 182.628L312.105 181.795ZM306.548 184.318H305.548V185H306.548H307.548V184.318H306.548ZM306.548 185L306.485 185.998C308.424 186.122 310.413 186.804 312.457 188.095L312.991 187.25L313.525 186.405C311.252 184.969 308.945 184.151 306.612 184.002L306.548 185ZM312.991 187.25L312.457 188.095C314.459 189.36 316.158 191.185 317.544 193.61L318.412 193.114L319.28 192.617C317.757 189.951 315.842 187.868 313.525 186.405L312.991 187.25ZM318.412 193.114L317.544 193.61C318.892 195.97 319.594 198.903 319.594 202.455H320.594H321.594C321.594 198.643 320.84 195.348 319.28 192.617L318.412 193.114ZM320.594 202.455H319.594C319.594 205.797 318.836 208.771 317.338 211.403L318.207 211.898L319.076 212.392C320.761 209.433 321.594 206.112 321.594 202.455H320.594ZM318.207 211.898L317.338 211.403C315.866 213.99 313.525 216.078 310.243 217.643L310.673 218.545L311.104 219.448C314.686 217.74 317.367 215.396 319.076 212.392L318.207 211.898ZM310.673 218.545L310.243 217.643C306.992 219.193 302.688 220 297.276 220V221V222C302.863 222 307.491 221.171 311.104 219.448L310.673 218.545ZM297.276 221V220H272.048V221V222H297.276V221ZM280.503 213.5V214.5H297.276V213.5V212.5H280.503V213.5ZM297.276 213.5V214.5C302.877 214.5 307.115 213.426 309.715 211.031L309.037 210.295L308.359 209.56C306.322 211.437 302.72 212.5 297.276 212.5V213.5ZM309.037 210.295L309.715 211.031C312.252 208.69 313.548 205.814 313.548 202.455H312.548H311.548C311.548 205.232 310.503 207.582 308.359 209.56L309.037 210.295ZM312.548 202.455H313.548C313.548 199.911 312.898 197.551 311.598 195.393L310.741 195.909L309.885 196.425C310.994 198.267 311.548 200.27 311.548 202.455H312.548ZM310.741 195.909L311.601 195.397C310.297 193.208 308.443 191.472 306.069 190.189L305.594 191.068L305.118 191.948C307.199 193.073 308.777 194.565 309.882 196.421L310.741 195.909ZM305.594 191.068L306.076 190.192C303.675 188.869 300.866 188.227 297.685 188.227V189.227V190.227C300.595 190.227 303.058 190.813 305.111 191.944L305.594 191.068ZM297.685 189.227V188.227H280.503V189.227V190.227H297.685V189.227ZM280.503 189.227H279.503V213.5H280.503H281.503V189.227H280.503ZM280.503 181.864V182.864H296.185V181.864V180.864H280.503V181.864ZM296.185 181.864V182.864C298.864 182.864 301.313 182.336 303.51 181.262L303.071 180.364L302.632 179.465C300.739 180.391 298.596 180.864 296.185 180.864V181.864ZM303.071 180.364L303.506 181.264C305.727 180.19 307.505 178.665 308.814 176.689L307.98 176.136L307.146 175.584C306.046 177.245 304.551 178.537 302.636 179.463L303.071 180.364ZM307.98 176.136L308.809 176.696C310.161 174.693 310.821 172.357 310.821 169.727H309.821H308.821C308.821 172.007 308.254 173.943 307.151 175.577L307.98 176.136ZM309.821 169.727H310.821C310.821 166.398 309.651 163.54 307.324 161.213L306.616 161.92L305.909 162.628C307.855 164.573 308.821 166.92 308.821 169.727H309.821ZM306.616 161.92L307.327 161.217C304.924 158.788 301.223 157.682 296.457 157.682V158.682V159.682C300.965 159.682 304.036 160.734 305.906 162.624L306.616 161.92ZM296.457 158.682V157.682H280.503V158.682V159.682H296.457V158.682ZM280.503 158.682H279.503V181.864H280.503H281.503V158.682H280.503ZM337.349 221V222H338.056L338.292 221.335L337.349 221ZM328.486 221L327.547 220.655L327.053 222H328.486V221ZM354.122 151.182V150.182H353.424L353.183 150.837L354.122 151.182ZM362.849 151.182L363.788 150.837L363.548 150.182H362.849V151.182ZM388.486 221V222H389.918L389.425 220.655L388.486 221ZM379.622 221L378.68 221.335L378.916 222H379.622V221ZM358.759 162.227L359.701 161.893L359.465 161.227H358.759V162.227ZM358.213 162.227V161.227H357.507L357.271 161.893L358.213 162.227ZM340.622 193.727V192.727H339.622V193.727H340.622ZM376.349 193.727H377.349V192.727H376.349V193.727ZM376.349 201.227V202.227H377.349V201.227H376.349ZM340.622 201.227H339.622V202.227H340.622V201.227ZM337.349 221V220H328.486V221V222H337.349V221ZM328.486 221L329.425 221.345L355.061 151.527L354.122 151.182L353.183 150.837L327.547 220.655L328.486 221ZM354.122 151.182V152.182H362.849V151.182V150.182H354.122V151.182ZM362.849 151.182L361.911 151.527L387.547 221.345L388.486 221L389.425 220.655L363.788 150.837L362.849 151.182ZM388.486 221V220H379.622V221V222H388.486V221ZM379.622 221L380.565 220.665L359.701 161.893L358.759 162.227L357.816 162.562L378.68 221.335L379.622 221ZM358.759 162.227V161.227H358.213V162.227V163.227H358.759V162.227ZM358.213 162.227L357.271 161.893L336.407 220.665L337.349 221L338.292 221.335L359.155 162.562L358.213 162.227ZM340.622 193.727V194.727H376.349V193.727V192.727H340.622V193.727ZM376.349 193.727H375.349V201.227H376.349H377.349V193.727H376.349ZM376.349 201.227V200.227H340.622V201.227V202.227H376.349V201.227ZM340.622 201.227H341.622V193.727H340.622H339.622V201.227H340.622Z" fill="#8F8F8F" mask="url(#path-2-outside-1_1459_6022)"/>
</svg>
