<svg width="1440" height="257" viewBox="0 0 1440 257" fill="none" xmlns="http://www.w3.org/2000/svg">
<path d="M0 96.3619L26.7 91.0619C53.3 85.3619 107 75.3619 160 80.3619C213.3 85.3619 267 107.362 320 123.062C373.3 139.362 427 149.362 480 123.062C533.3 96.3619 587 32.3619 640 27.0619C693.3 21.3619 747 75.3619 800 75.0619C853.3 75.3619 907 21.3619 960 5.66188C1013.3 -10.6381 1067 11.3619 1120 32.3619C1173.3 53.3619 1227 75.3619 1280 69.6619C1333.3 64.3619 1387 32.3619 1413 16.3619L1440 0.36188V256.362H1413.3C1386.7 256.362 1333 256.362 1280 256.362C1226.7 256.362 1173 256.362 1120 256.362C1066.7 256.362 1013 256.362 960 256.362C906.7 256.362 853 256.362 800 256.362C746.7 256.362 693 256.362 640 256.362C586.7 256.362 533 256.362 480 256.362C426.7 256.362 373 256.362 320 256.362C266.7 256.362 213 256.362 160 256.362C106.7 256.362 53 256.362 27 256.362H0V96.3619Z" fill="#FF8150" style="fill:#FF8150;fill:color(display-p3 1.0000 0.5059 0.3137);fill-opacity:1;"/>
</svg>
